<?xml version="1.0" standalone="no"?>
<!DOCTYPE svg PUBLIC "-//W3C//DTD SVG 20010904//EN"
 "http://www.w3.org/TR/2001/REC-SVG-20010904/DTD/svg10.dtd">
<svg version="1.0" xmlns="http://www.w3.org/2000/svg"
 width="400.000000pt" height="400.000000pt" viewBox="0 0 400.000000 400.000000"
 preserveAspectRatio="xMidYMid meet">

<g transform="translate(0.000000,400.000000) scale(0.100000,-0.100000)"
fill="#000000" stroke="none">
<path d="M3215 3806 c-132 -34 -291 -112 -349 -172 -53 -55 -66 -91 -66 -187
0 -77 2 -87 30 -125 16 -23 38 -46 49 -52 19 -10 19 -11 -4 -53 -14 -23 -25
-48 -25 -54 0 -14 90 -63 114 -63 8 0 27 11 43 24 28 24 29 24 52 5 36 -29
114 -48 266 -65 214 -22 253 -6 321 132 23 47 29 73 29 125 0 59 -5 76 -56
180 -43 86 -75 135 -131 197 -40 45 -87 91 -103 102 -35 23 -94 25 -170 6z
m217 -118 c66 -69 88 -101 133 -193 29 -60 56 -125 60 -142 9 -44 -16 -125
-57 -188 -43 -64 -62 -68 -262 -50 -145 14 -164 18 -216 47 l-58 31 -32 -26
c-37 -31 -41 -32 -81 -12 -31 16 -31 18 3 67 25 36 23 44 -18 80 -51 45 -64
77 -64 156 0 60 4 74 29 109 35 48 134 112 237 153 94 38 135 48 197 49 48 1
50 0 129 -81z"/>
<path d="M1020 3621 c-114 -36 -180 -80 -291 -193 -113 -115 -158 -183 -184
-284 -20 -77 -7 -150 36 -199 103 -117 298 -44 557 208 101 100 164 188 182
256 44 168 -107 274 -300 212z m201 -48 c59 -35 73 -117 32 -197 -85 -167
-421 -436 -545 -436 -91 0 -131 48 -126 150 7 119 75 232 213 351 157 136 329
189 426 132z"/>
<path d="M960 3468 c-87 -43 -204 -162 -247 -249 -40 -81 -42 -121 -7 -156 54
-54 154 -11 289 125 39 39 87 99 108 134 88 149 15 225 -143 146z m143 -19
c31 -49 -164 -284 -284 -343 -82 -40 -105 -24 -93 66 6 46 12 54 106 143 64
60 121 105 161 125 66 33 94 35 110 9z"/>
<path d="M1815 3361 c-94 -16 -285 -71 -357 -103 -246 -107 -404 -290 -492
-566 -32 -103 -45 -207 -48 -407 -3 -142 0 -167 18 -218 l21 -58 -25 -20 c-17
-13 -32 -17 -46 -12 -32 11 -84 5 -130 -15 -141 -63 -259 -314 -229 -488 7
-37 20 -79 31 -93 16 -22 18 -40 14 -126 -4 -89 -7 -103 -29 -126 -48 -52 -39
-221 18 -336 55 -111 143 -216 216 -259 63 -38 229 -100 318 -119 44 -9 108
-25 141 -35 34 -10 124 -26 200 -35 172 -21 596 -16 764 10 58 9 185 24 282
35 98 11 202 28 231 38 87 29 266 141 343 214 117 111 185 272 214 508 13 107
13 237 0 317 -19 116 -88 315 -152 441 -60 117 -63 126 -63 195 l0 72 39 3
c83 7 119 58 115 161 -2 47 2 75 14 98 21 40 22 117 2 174 -27 75 -52 77 -154
13 -77 -48 -85 -47 -95 1 -27 126 -44 180 -72 235 -38 76 -56 101 -147 206
-129 148 -244 214 -472 270 -78 19 -135 25 -260 29 -88 2 -182 0 -210 -4z
m314 -61 c87 -10 323 -76 401 -112 43 -20 231 -200 269 -257 14 -23 14 -25 -9
-40 -52 -33 -101 -85 -139 -145 -21 -35 -54 -75 -72 -90 -41 -35 -72 -30 -139
19 -131 96 -409 166 -778 196 -238 19 -443 -16 -562 -96 -47 -32 -51 -33 -44
-12 14 48 67 136 128 212 198 247 555 370 945 325z m730 -477 c26 -55 62 -152
85 -234 9 -31 23 -62 32 -69 48 -40 69 -152 50 -263 -16 -90 -24 -104 -80
-151 -26 -21 -46 -41 -46 -46 0 -16 32 -19 64 -6 l32 13 18 -43 c10 -24 19
-54 20 -67 2 -13 26 -64 54 -113 84 -146 134 -363 135 -579 0 -96 -5 -129 -41
-267 -72 -282 -127 -348 -407 -491 l-110 -57 -145 -10 c-80 -6 -219 -20 -310
-32 -135 -17 -218 -21 -455 -21 -342 0 -451 12 -630 71 -66 21 -142 45 -170
52 -85 22 -183 79 -228 133 -23 27 -60 70 -81 96 -62 73 -79 121 -84 237 -4
100 -4 101 23 122 36 29 100 45 151 39 63 -7 69 1 66 82 -2 38 1 86 7 108 11
41 90 174 107 180 6 2 54 -39 108 -92 97 -94 132 -115 198 -115 39 0 58 10 58
30 0 20 -27 30 -82 30 -42 0 -56 12 -142 112 -107 125 -160 125 -239 -4 -55
-88 -82 -174 -73 -235 l6 -43 -40 0 c-21 0 -50 -4 -64 -10 -26 -9 -26 -9 -26
43 0 114 42 268 115 422 81 171 116 222 201 292 44 36 80 67 82 68 2 2 -9 27
-25 57 -27 52 -28 57 -27 203 1 157 14 272 40 365 14 51 20 59 75 94 133 86
258 111 516 103 221 -6 439 -37 592 -83 134 -41 178 -60 245 -109 37 -27 58
-35 91 -35 55 0 88 26 148 119 45 67 129 151 151 151 7 0 22 -21 35 -47z m329
-287 c4 -63 4 -64 -31 -90 -19 -15 -38 -34 -41 -42 -8 -22 4 -44 25 -44 22 0
25 -32 9 -76 -13 -34 -38 -53 -69 -54 -18 0 -22 4 -16 18 28 66 16 183 -25
244 l-29 43 42 21 c23 11 58 30 77 42 44 28 53 19 58 -62z m-2360 -619 c-51
-47 -156 -248 -203 -386 -34 -102 -44 -105 -52 -13 -10 106 43 255 119 338 42
46 105 83 142 84 17 0 16 -3 -6 -23z"/>
<path d="M1970 2673 c-44 -5 -182 -29 -275 -48 -38 -8 -115 -22 -170 -31 -55
-8 -120 -23 -143 -31 l-44 -15 4 -49 c1 -27 1 -49 -2 -49 -3 0 -32 9 -65 19
-71 22 -108 15 -148 -29 -53 -59 -26 -160 60 -226 23 -18 47 -34 53 -36 8 -2
6 -13 -4 -33 -24 -46 -20 -87 12 -117 90 -87 297 -81 395 10 51 48 29 70 -28
27 -55 -43 -141 -68 -204 -61 -73 9 -138 39 -152 70 -12 26 -13 24 37 93 16
22 15 23 -17 40 -49 27 -115 90 -129 123 -16 38 -6 76 26 96 24 16 29 16 109
-15 46 -17 119 -38 162 -47 158 -30 195 -44 246 -93 27 -25 60 -66 75 -90 l25
-44 76 6 c88 7 322 54 335 67 6 6 5 36 -3 77 -7 38 -15 120 -18 183 -7 205
-10 211 -111 208 -37 0 -83 -3 -102 -5z m170 -183 c6 -74 18 -161 26 -194 8
-32 12 -62 7 -65 -4 -4 -73 -17 -153 -30 -80 -12 -156 -25 -170 -27 -21 -3
-29 3 -48 37 -13 22 -38 57 -56 77 -31 35 -34 43 -40 132 -4 52 -10 110 -13
128 -5 30 -3 32 23 32 16 0 72 10 124 21 98 21 270 39 282 29 4 -3 12 -66 18
-140z m-486 3 c4 -38 9 -85 12 -106 l6 -38 -51 26 c-28 15 -89 34 -136 44
l-85 16 -14 42 -14 41 66 11 c37 6 90 15 117 20 96 17 92 19 99 -56z"/>
<path d="M1927 2439 c-68 -16 -136 -50 -143 -71 -4 -14 1 -27 14 -41 l21 -20
77 22 c42 12 101 31 131 43 49 18 54 23 51 46 -3 25 -6 27 -58 29 -30 1 -72
-3 -93 -8z"/>
<path d="M1447 2483 c-18 -17 0 -23 73 -23 64 0 80 3 80 15 0 12 -15 15 -73
15 -41 0 -77 -3 -80 -7z"/>
<path d="M2835 2626 c-74 -23 -107 -45 -103 -69 3 -20 9 -22 59 -21 72 1 119
27 119 65 0 21 -20 44 -33 38 -1 0 -20 -6 -42 -13z"/>
<path d="M2550 2454 c-65 -17 -149 -55 -190 -84 -25 -18 -28 -25 -20 -40 15
-28 128 -60 209 -60 80 0 129 28 161 90 26 51 25 64 -6 89 -31 25 -75 26 -154
5z m133 -30 c12 -12 -31 -79 -61 -96 -39 -23 -130 -22 -196 1 l-50 17 45 19
c128 52 243 78 262 59z"/>
<path d="M2380 1902 c-86 -23 -160 -66 -160 -93 0 -16 4 -19 18 -13 179 79
305 83 387 10 45 -40 59 -106 45 -206 -25 -175 -105 -283 -296 -396 -122 -73
-222 -106 -324 -107 -70 -2 -93 2 -131 21 -85 42 -87 101 -5 190 49 53 40 69
-28 46 -44 -15 -51 -15 -82 0 -55 25 -47 53 36 127 39 35 70 67 70 71 0 4 -11
8 -26 8 -17 0 -44 -19 -90 -63 -51 -50 -64 -69 -64 -94 0 -41 33 -80 81 -94
21 -7 39 -14 39 -15 0 -2 -9 -18 -20 -36 -43 -71 -15 -149 67 -189 42 -21 62
-24 168 -24 113 0 124 2 192 31 204 89 360 218 422 347 61 128 74 283 31 367
-53 102 -192 150 -330 112z"/>
</g>
</svg>
